<?xml version="1.0" encoding="utf-8"?>
<!-- Svg Vector Icons : http://www.onlinewebfonts.com/icon -->
<!DOCTYPE svg PUBLIC "-//W3C//DTD SVG 1.1//EN" "http://www.w3.org/Graphics/SVG/1.1/DTD/svg11.dtd">
<svg version="1.1" xmlns="http://www.w3.org/2000/svg" xmlns:xlink="http://www.w3.org/1999/xlink" x="0px" y="0px" viewBox="0 0 1000 1000" enable-background="new 0 0 1000 1000" xml:space="preserve">
<metadata> Svg Vector Icons : http://www.onlinewebfonts.com/icon </metadata>
<g><path d="M867.5,25.3h-735C64.9,25.3,10,80.3,10,147.8v704.4c0,67.6,54.9,122.5,122.5,122.5h735c67.6,0,122.5-54.9,122.5-122.5V147.8C990,80.3,935.1,25.3,867.5,25.3z M928.8,852.2c0,33.8-27.5,61.3-61.3,61.3h-735c-33.8,0-61.3-27.5-61.3-61.3V147.8c0-33.8,27.5-61.3,61.3-61.3h735c33.8,0,61.3,27.5,61.3,61.3V852.2z M806.3,239.7H285.6c-16.9,0-30.6,13.7-30.6,30.6s13.7,30.6,30.6,30.6h520.6c16.9,0,30.6-13.7,30.6-30.6S823.2,239.7,806.3,239.7z M806.3,392.8H285.6c-16.9,0-30.6,13.7-30.6,30.6s13.7,30.6,30.6,30.6h520.6c16.9,0,30.6-13.7,30.6-30.6S823.2,392.8,806.3,392.8z M806.3,545.9H285.6c-16.9,0-30.6,13.7-30.6,30.6s13.7,30.6,30.6,30.6h520.6c16.9,0,30.6-13.7,30.6-30.6S823.2,545.9,806.3,545.9z M806.3,699.1H285.6c-16.9,0-30.6,13.7-30.6,30.6s13.7,30.6,30.6,30.6h520.6c16.9,0,30.6-13.7,30.6-30.6S823.2,699.1,806.3,699.1z M163.1,300.9h61.3v-61.3h-61.3V300.9z M163.1,454.1h61.3v-61.3h-61.3V454.1z M163.1,607.2h61.3v-61.3h-61.3V607.2z M163.1,760.3h61.3v-61.3h-61.3V760.3z"/></g>
</svg>